<svg width="18" height="18" viewBox="0 0 18 18" fill="none" xmlns="http://www.w3.org/2000/svg">
<g clip-path="url(#clip0_298_2)">
<path d="M13.6829 7.75983H4.02148V17.4967H13.6829V7.75983Z" fill="#F4B2B0"/>
<path d="M6.42507 14.8467C6.14716 14.8467 5.92188 14.6213 5.92188 14.3435V11.123C5.92188 10.8451 6.14716 10.6198 6.42507 10.6198C6.70298 10.6198 6.92826 10.8451 6.92826 11.123V14.3435C6.92829 14.6213 6.70301 14.8467 6.42507 14.8467Z" fill="#B3404A"/>
<path d="M8.8528 14.8467C8.57489 14.8467 8.34961 14.6213 8.34961 14.3435V11.123C8.34961 10.8451 8.57489 10.6198 8.8528 10.6198C9.13071 10.6198 9.35599 10.8451 9.35599 11.123V14.3435C9.35599 14.6213 9.13071 14.8467 8.8528 14.8467Z" fill="#B3404A"/>
<path d="M11.2805 14.8467C11.0026 14.8467 10.7773 14.6213 10.7773 14.3435V11.123C10.7773 10.8451 11.0026 10.6198 11.2805 10.6198C11.5584 10.6198 11.7837 10.8451 11.7837 11.123V14.3435C11.7837 14.6213 11.5584 14.8467 11.2805 14.8467Z" fill="#B3404A"/>
<path d="M15.2783 4.77988C14.9818 4.31403 14.5216 3.99157 13.9826 3.87187C13.7115 3.81133 13.4425 3.98268 13.3823 4.25398C13.3221 4.52531 13.4931 4.79401 13.7644 4.85431C14.041 4.9158 14.2771 5.08124 14.4293 5.3203C14.5815 5.55937 14.6314 5.84339 14.57 6.12004L14.309 7.29489L3.50211 4.8946L3.76307 3.71967C3.88991 3.14863 4.45755 2.78737 5.02877 2.914L10.1335 4.04775C10.4046 4.10798 10.6735 3.9369 10.7338 3.66564C10.794 3.3943 10.6229 3.1256 10.3517 3.06531L7.45339 2.42164L7.74613 1.10352L12.0689 2.06357L11.6671 3.87296C11.6069 4.14429 11.7779 4.41299 12.0492 4.47328C12.0859 4.48144 12.1226 4.48538 12.1587 4.48538C12.3895 4.48538 12.5974 4.3257 12.6495 4.09117L13.1605 1.79055C13.1894 1.66026 13.1654 1.52381 13.0938 1.41124C13.0221 1.29867 12.9086 1.21919 12.7783 1.19025L7.47307 0.0120259C7.20191 -0.0480562 6.933 0.122838 6.87275 0.394139L6.47091 2.20349L5.24695 1.93166C4.13407 1.6843 3.02774 2.3888 2.78056 3.50156L2.4105 5.16765C2.35028 5.43899 2.52135 5.70769 2.79262 5.76798L9.49572 7.25674H4.02238C3.74447 7.25674 3.51919 7.48206 3.51919 7.75994V17.4968C3.51919 17.7747 3.74447 18 4.02238 18H13.6837C13.9616 18 14.1869 17.7747 14.1869 17.4968V8.2986L14.5821 8.38642C14.6182 8.39447 14.6548 8.39841 14.6912 8.39841C14.7862 8.39841 14.88 8.37155 14.9614 8.31969C15.074 8.24805 15.1535 8.13456 15.1825 8.00427L15.5525 6.33818C15.6723 5.79917 15.5749 5.24574 15.2783 4.77988ZM13.1805 16.9936H4.52561V8.26313H13.1805V16.9936Z" fill="#B3404A"/>
</g>
<defs>
<clipPath id="clip0_298_2">
<rect width="18" height="18" fill="white"/>
</clipPath>
</defs>
</svg>
